<mxfile host="app.diagrams.net" modified="2021-05-05T01:18:20.480Z" agent="5.0 (Windows)" etag="_lL6D2Brd4QR6aryMOh3" version="14.6.9" type="github">
  <diagram id="Y1r_ca_zKAyjnsKLVMc5" name="第 1 页">
    <mxGraphModel dx="782" dy="551" grid="1" gridSize="10" guides="1" tooltips="1" connect="1" arrows="1" fold="1" page="1" pageScale="1" pageWidth="827" pageHeight="1169" math="0" shadow="0">
      <root>
        <mxCell id="0" />
        <mxCell id="1" parent="0" />
        <mxCell id="dbpu4I7PjvVpwbkaQ9op-1" value="" style="rounded=1;whiteSpace=wrap;html=1;strokeWidth=3;strokeColor=#97D077;" vertex="1" parent="1">
          <mxGeometry x="110" y="220" width="210" height="110" as="geometry" />
        </mxCell>
        <mxCell id="dbpu4I7PjvVpwbkaQ9op-2" value="前馈神经网络" style="rounded=1;whiteSpace=wrap;html=1;strokeWidth=2;fillColor=#dae8fc;strokeColor=#6c8ebf;" vertex="1" parent="1">
          <mxGeometry x="130" y="230" width="170" height="40" as="geometry" />
        </mxCell>
        <mxCell id="dbpu4I7PjvVpwbkaQ9op-4" value="多头自注意机制" style="rounded=1;whiteSpace=wrap;html=1;strokeWidth=2;fillColor=#fff2cc;strokeColor=#d6b656;" vertex="1" parent="1">
          <mxGeometry x="130" y="280" width="170" height="40" as="geometry" />
        </mxCell>
      </root>
    </mxGraphModel>
  </diagram>
</mxfile>
